<?xml version="1.0"?>
<svg width="198" height="29" fill="none" xmlns="http://www.w3.org/2000/svg"><g clip-path="url(#clip0_314_233)" fill="#333"><path d="M196.081 9.864H198V.294h-1.919v9.57zm-15.419 0h1.919V3.397h.038l5.239 6.467h1.918V.294h-1.918v6.467h-.038L182.581.294h-1.919v9.57zm-8.28 0h1.918V.294h-1.918v9.57zM160.227.294v9.57h7.413V7.943h-5.495V.294h-1.918zm-10.588 7.943c-2.378 0-3.946-1.495-3.946-3.16 0-1.666 1.568-3.16 3.946-3.16s3.946 1.494 3.946 3.16c0 1.665-1.568 3.16-3.946 3.16zm0 1.921c3.743 0 5.865-2.4 5.865-5.081 0-2.68-2.085-5.082-5.865-5.082-3.78 0-5.864 2.401-5.864 5.082 0 2.68 2.122 5.082 5.864 5.082zm-10.218-8.35C138.408 1.086 137.062 0 134.59 0c-2.658 0-5.756 1.699-5.756 5.082s2.658 5.081 5.865 5.081c1.478 0 3.543-.498 4.888-1.494l-.867-1.775c-.791.612-2.307 1.348-4.003 1.348-2.747 0-3.964-1.68-3.964-3.103 0-1.552 1.383-3.217 3.742-3.217 1.862 0 3.174 1.053 3.799 1.57l1.123-1.68.004-.004zm-17.892.408c.664 0 1.531.019 1.531.906s-.957.925-1.531.925h-4.168V2.221h4.168v-.005zM115.442.294v9.57h1.919V5.97h3.06l2.416 3.9h2.416l-2.416-3.92c.905-.331 2.141-.996 2.141-2.827 0-2.164-1.677-2.828-3.449-2.828h-6.087zm-9.554 1.865l1.842 3.767h-3.69l1.843-3.767h.005zm-5.922 7.705h2.175l.957-2.011h5.589l.957 2.011h2.179l-4.68-9.57h-2.544l-4.628 9.57h-.005zM90.634 8.57l3.321-4.802h.038v6.097h1.918V.294h-1.918l-3.359 4.802L87.276.294h-1.919v9.57h1.919V3.767h.038l3.32 4.802zM63.742.294v9.57h8.707V7.943H65.66V5.874h3.467V3.952H65.66V2.216h6.566V.294h-8.484zm-8.28 1.922c.663 0 1.53.019 1.53.906s-.957.925-1.53.925h-4.169V2.221h4.169v-.005zM49.374.294v9.57h1.919V5.97h3.06l2.416 3.9h2.416l-2.416-3.92c.905-.331 2.141-.996 2.141-2.827 0-2.164-1.677-2.828-3.448-2.828h-6.088zm-8.152 1.922c.663 0 1.53.019 1.53.906s-.957.925-1.53.925h-4.169V2.221h4.169v-.005zM35.135.294v9.57h1.918V5.97h3.06l2.416 3.9h2.416L42.53 5.95c.905-.331 2.142-.996 2.142-2.827 0-2.164-1.677-2.828-3.449-2.828h-6.087zm-13.425 0v9.57h8.707V7.943h-6.789V5.874h3.468V3.952h-3.468V2.216h6.566V.294H21.71zm-7.916 9.57h1.919V.294h-1.919v9.57zM1.92 2.216h3.818c.682 0 1.53.095 1.53 1.11 0 1.072-.791 1.163-1.53 1.163H1.919V2.216zM0 .294v9.57h1.919V6.41h3.818c1.975 0 3.448-.94 3.448-3.084 0-2.145-1.587-3.032-3.448-3.032H0zM135.357 22.88c-.445-.229-1.653-.878-3.254-.878-2.213 0-3.037 1.015-3.037 2.125 0 1.376 1.042 1.808 2.539 1.832 2.468.066 2.899.09 2.899.93 0 .74-.829.991-2.008.991-1.857 0-2.591-.522-3.354-.982l-.535.982c.431.304 1.61 1.12 3.865 1.12 1.473 0 3.24-.332 3.24-2.225 0-1.03-.341-1.936-3.316-1.936-1.895 0-2.122-.204-2.122-.84 0-.56.621-.878 1.843-.878 1.449 0 2.174.46 2.719.764l.521-1.006zm-8.631 4.8h-4.017v-5.474h-1.118v6.59h5.135v-1.12.005zm-8.479 0h-4.804v-1.72h2.568v-1.12h-2.568v-1.52h4.676V22.2h-5.794v6.59h5.922v-1.12.01zm-9.508-4.8c-.445-.229-1.653-.878-3.254-.878-2.212 0-3.036 1.015-3.036 2.125 0 1.376 1.042 1.808 2.539 1.832 2.468.066 2.899.09 2.899.93 0 .74-.825.991-2.009.991-1.857 0-2.591-.522-3.354-.982l-.535.982c.431.304 1.615 1.12 3.866 1.12 1.473 0 3.24-.332 3.24-2.225 0-1.03-.341-1.936-3.316-1.936-1.895 0-2.122-.204-2.122-.84 0-.56.62-.878 1.842-.878 1.45 0 2.175.46 2.719.764l.521-1.006zm-9.341 0c-.445-.229-1.653-.878-3.254-.878-2.213 0-3.037 1.015-3.037 2.125 0 1.376 1.042 1.808 2.54 1.832 2.467.066 2.898.09 2.898.93 0 .74-.824.991-2.008.991-1.857 0-2.592-.522-3.354-.982l-.535.982c.43.304 1.615 1.12 3.865 1.12 1.473 0 3.24-.332 3.24-2.225 0-1.03-.34-1.936-3.316-1.936-1.895 0-2.122-.204-2.122-.84 0-.56.62-.878 1.843-.878 1.45 0 2.174.46 2.719.764l.52-1.006zm-10-.674H88.28v3.729c0 1.196-.227 1.945-2.06 1.945-1.834 0-2.061-.75-2.061-1.945v-3.73H83.04v3.73c0 1.665.583 3.065 3.174 3.065 2.59 0 3.178-1.4 3.178-3.065v-3.73h.005zm-15.21 2.775v-1.656h2.998c.852 0 1.336.062 1.336.802 0 .65-.536.854-1.27.854h-3.065zm3.685 1.096c.776-.128 1.767-.508 1.767-1.974s-1.18-1.898-2.502-1.898h-4.064v6.591h1.118v-2.7h2.316l1.895 2.7h1.398l-1.919-2.723-.01.004zm-13.766 1.604v-1.822h3.103c.838 0 1.335.1 1.335.968 0 .664-.52.854-1.383.854h-3.055zm0-2.942v-1.414h3.05c.635 0 1.057.138 1.057.712 0 .522-.46.702-1.057.702h-3.05zm-1.118-2.534v6.591h4.168c1.82 0 2.502-.901 2.502-2.05 0-.915-.446-1.31-.711-1.59.213-.37.379-.545.379-1.247 0-1.5-1.397-1.703-2.17-1.703H62.99z"></path></g><defs><clipPath id="clip0_314_233"><path fill="#fff" d="M0 0h198v29H0z"></path></clipPath></defs></svg>